<?xml version="1.0" encoding="UTF-8"?>
<svg width="19px" height="20px" viewBox="0 0 19 20" version="1.1" xmlns="http://www.w3.org/2000/svg" xmlns:xlink="http://www.w3.org/1999/xlink">
    <!-- Generator: Sketch 61 (89581) - https://sketch.com -->
    <title>search</title>
    <desc>Created with Sketch.</desc>
    <g id="首页" stroke="none" stroke-width="1" fill="none" fill-rule="evenodd">
        <g id="Desktop-HD" transform="translate(-1436.000000, -30.000000)" fill-rule="nonzero">
            <g id="头部">
                <g id="搜索框" transform="translate(1231.000000, 20.000000)">
                    <g id="search" transform="translate(205.000000, 10.000000)">
                        <rect id="矩形" fill="#000000" opacity="0" x="0" y="0" width="20" height="20"></rect>
                        <path d="M18.9346223,18.5197836 L15.6978369,15.2830181 C16.4787674,14.4654924 17.0884141,13.5237709 17.5113673,12.480798 C17.9449933,11.411463 18.1648642,10.281749 18.1648642,9.12303457 C18.1648642,7.9643002 17.9449933,6.83458613 17.5113673,5.76527113 C17.0622718,4.65780199 16.4027389,3.66445549 15.5510964,2.81279291 C14.6994338,1.96113033 13.7060873,1.3015975 12.5986181,0.852501992 C11.5293031,0.418875996 10.3995691,0.199005078 9.24085471,0.199005078 C8.08212033,0.199005078 6.95240627,0.418856016 5.88309127,0.852502012 C4.77562213,1.30159752 3.78227563,1.96113037 2.93061305,2.81279293 C2.07895047,3.66445549 1.41941764,4.65780201 0.970322129,5.76527115 C0.536696133,6.83458615 0.316825195,7.96430021 0.316825195,9.12303459 C0.316825195,10.281749 0.536676133,11.411483 0.970322129,12.480798 C1.41941764,13.5882472 2.07895049,14.5815937 2.93061305,15.4332762 C3.78227563,16.2849188 4.77562213,16.9444517 5.88309127,17.3935472 C6.95240627,17.8271732 8.08212033,18.0470441 9.24085471,18.0470441 C10.3995691,18.0470441 11.5293031,17.8271732 12.5986181,17.3935472 C13.3376171,17.0938704 14.0257306,16.7003372 14.654924,16.2186837 L17.9453131,19.5090729 L18.9346223,18.5197836 Z M9.24085471,16.6479927 C7.23085748,16.6479927 5.34117869,15.8652633 3.9199023,14.443987 C2.49862594,13.0227106 1.71589662,11.1330318 1.71589662,9.12303457 C1.71589662,7.11303734 2.49862594,5.22335855 3.9199023,3.80208217 C5.34117867,2.3808058 7.23085748,1.59807648 9.24085471,1.59807648 C11.2508519,1.59807648 13.1405307,2.3808058 14.5618071,3.80208217 C15.9830835,5.22335854 16.7658128,7.11303734 16.7658128,9.12303457 C16.7658128,11.1330318 15.9830835,13.0227106 14.5618071,14.443987 C13.1405307,15.8652634 11.2508519,16.6479927 9.24085471,16.6479927 Z" id="形状" fill="#999999"></path>
                    </g>
                </g>
            </g>
        </g>
    </g>
</svg>